<?xml version="1.0" standalone="no"?>
<!DOCTYPE svg PUBLIC "-//W3C//DTD SVG 20010904//EN"
 "http://www.w3.org/TR/2001/REC-SVG-20010904/DTD/svg10.dtd">
<svg version="1.0" xmlns="http://www.w3.org/2000/svg"
 width="512.000000pt" height="512.000000pt" viewBox="0 0 512.000000 512.000000"
 preserveAspectRatio="xMidYMid meet">
<metadata>
Created by potrace 1.14, written by Peter Selinger 2001-2017
</metadata>
<g transform="translate(0.000000,512.000000) scale(0.100000,-0.100000)"
fill="#000000" stroke="none">
<path d="M2350 5114 c-520 -48 -999 -241 -1398 -563 -118 -96 -325 -306 -413
-421 -278 -360 -441 -746 -516 -1215 -24 -155 -24 -555 0 -710 75 -469 238
-855 516 -1215 88 -115 295 -325 413 -421 364 -293 776 -473 1255 -546 139
-21 536 -24 673 -5 482 68 930 261 1295 557 121 98 334 318 423 437 271 362
440 774 504 1228 17 125 17 515 0 640 -70 498 -267 950 -577 1319 -91 109
-276 289 -379 370 -353 278 -759 453 -1221 526 -97 15 -478 28 -575 19z m400
-1326 c0 -29 -9 -397 -20 -818 -11 -421 -20 -795 -20 -832 l0 -68 -144 0 -144
0 -6 93 c-5 85 -47 1554 -46 1640 l0 37 190 0 190 0 0 -52z m-79 -1999 c73
-37 109 -118 109 -244 0 -178 -75 -270 -220 -269 -142 1 -215 95 -214 274 1
79 22 160 52 196 60 72 180 91 273 43z"/>
</g>
</svg>
