<?xml version="1.0" encoding="UTF-8"?>
<svg version="1.1" viewBox="0 0 254.30376 255.05281" xmlns="http://www.w3.org/2000/svg" xmlns:xlink="http://www.w3.org/1999/xlink">
 <defs>
  <linearGradient id="b">
   <stop stop-color="#fff" stop-opacity=".6455" offset="0"/>
   <stop stop-color="#fff" stop-opacity="0" offset="1"/>
  </linearGradient>
  <linearGradient id="a">
   <stop stop-opacity=".52646" offset="0"/>
   <stop stop-opacity="0" offset="1"/>
  </linearGradient>
  <clipPath id="o">
   <rect x="-2.9962" y="-2.0566" width="254.3" height="255.05" fill="#fff"/>
  </clipPath>
  <linearGradient id="n" x1="-1.7337" x2="-1.7337" y1="68.051" y2="72.037" gradientTransform="scale(.99864 1.0014)" gradientUnits="userSpaceOnUse" spreadMethod="reflect">
   <stop stop-color="#486dc9" offset="0"/>
   <stop stop-color="#4788ff" offset="1"/>
  </linearGradient>
  <radialGradient id="d" cx="56.123" cy="389.07" r="73.764" fx="55.254" fy="391.39" gradientTransform="scale(2.0654 .48417)" gradientUnits="userSpaceOnUse">
   <stop stop-opacity=".39683" offset="0"/>
   <stop stop-color="#999a9a" stop-opacity="0" offset="1"/>
  </radialGradient>
  <linearGradient id="m" x1="81.374" x2="100.18" y1="67.488" y2="121.75" gradientTransform="scale(1.1141 .89757)" gradientUnits="userSpaceOnUse" xlink:href="#b"/>
  <linearGradient id="l" x1="116.25" x2="140.39" y1="79.325" y2="146.21" gradientTransform="scale(1.1507 .86905)" gradientUnits="userSpaceOnUse" xlink:href="#b"/>
  <linearGradient id="k" x1="122.97" x2="35.052" y1="234.38" y2="183.51" gradientTransform="scale(1.0966 .91187)" gradientUnits="userSpaceOnUse" xlink:href="#a"/>
  <linearGradient id="j" x1="94.104" x2="165.34" y1="199.74" y2="131.58" gradientTransform="scale(.94928 1.0534)" gradientUnits="userSpaceOnUse" xlink:href="#a"/>
  <linearGradient id="i" x1="206.36" x2="202.29" y1="136.43" y2="128.13" gradientTransform="scale(.79562 1.2569)" gradientUnits="userSpaceOnUse" xlink:href="#a"/>
  <linearGradient id="h" x1="135.67" x2="122.16" y1="210.98" y2="201.01" gradientTransform="scale(1.1926 .8385)" gradientUnits="userSpaceOnUse" xlink:href="#a"/>
  <radialGradient id="c" cx="115.07" cy="141.89" r="10.271" gradientTransform="scale(1.3327 .75034)" gradientUnits="userSpaceOnUse" xlink:href="#b"/>
  <linearGradient id="g" x1="156.48" x2="131.97" y1="220.12" y2="206.73" gradientTransform="scale(1.0155 .9847)" gradientUnits="userSpaceOnUse" xlink:href="#a"/>
  <linearGradient id="f" x1="149.6" x2="136.2" y1="219.56" y2="205.24" gradientTransform="scale(1.0155 .9847)" gradientUnits="userSpaceOnUse" xlink:href="#a"/>
  <linearGradient id="e" x1="207.14" x2="84.845" y1="186.79" y2="180.76" gradientTransform="scale(1.2266 .81525)" gradientUnits="userSpaceOnUse">
   <stop stop-color="#fff" stop-opacity=".88095" offset="0"/>
   <stop stop-color="#fff" stop-opacity="0" offset="1"/>
  </linearGradient>
 </defs>
 <g transform="translate(2.9962 2.0566)" clip-path="url(#o)" fill-rule="evenodd">
  <path transform="translate(-1.2521 -.3996)" d="m-1.7313-1.7313h254.85v255.54h-254.85z" fill="url(#n)"/>
  <path transform="translate(-2.0666 -1.0922)" d="m-7.7111 233.39-78.809-71.56 545.35-72.483 69.11 91.513-535.65 52.53z" fill="url(#d)"/>
  <path transform="translate(-1.2521 -.3996)" d="m13.963 54.762-5.4255 15.921c15.974 34.339 30.141 77.107 23.51 119.87l5.4253 10.302 173.61-48.699c-3.93-37.14-1.52-78.97-25.33-117.06l-122.06 23.418-13.569-10.302-36.168 6.556z" fill="#9cd9ff" fill-opacity=".47619"/>
  <path transform="translate(-1.2521 -.3996)" d="m177.55 40.481c-37.93 7.783-76.12 14.652-114.15 22.094-7.634-2.361-12.416-12.97-21.343-8.902l-25.377 4.589c-1.6526 5.835-6.2567 12.272-1.6735 17.952 15.742 35.424 25.993 74.649 20.767 113.61 0.68088 5.4631 6.0452 7.6846 10.406 4.3125 53.435-14.999 106.88-29.978 160.31-44.969-3.1189-36.882-3.4558-75.876-22.688-108.78-1.9256-1.1353-4.2122-0.04694-6.25 0.09375z" fill="url(#m)"/>
  <path transform="translate(-1.2521 -.3996)" d="m194.63 54.265-101.8 23.546-13.85 16.62-44.321 6.9252-6.2327 9.0028-2.0776 5.5402c8.0794 28.624 9.9261 60.018 5.5402 73.407l4.8476 10.388 173.13-46.399c-5.0785-33.01-1.8467-65.328-15.235-99.03z" fill="#537ed2" fill-opacity=".51821"/>
  <path transform="translate(-1.2521 -.3996)" d="m37.788 200.25 9.0422-13.111c-10.549-26.85-8.439-60.25-4.521-80.54l40.69-6.55 13.563-15.926 122.98-29.032c-5.7267 29.657-7.8366 49.948 4.5211 83.351l-9.0422 14.048-177.23 47.763z" fill="#9cd9ff" fill-opacity=".47451"/>
  <path transform="translate(-1.2521 -.3996)" d="m211.24 60.221c-37.315 9.4469-75.014 17.744-112.47 26.781-5.328 5.3622-9.2469 13.293-16.143 16.441l-36.763 5.9344c-4.1974 25.841-4.0409 52.989 5.4062 77.719-5.4375 5.9735-3.8284 6.5237 3.262 3.7821l157.89-42.563c2.4455-5.1123 9.4016-9.7385 5.6303-15.92-8.3924-23.255-8.5446-48.792-3.474-72.798l-3.3438 0.625z" fill="url(#l)"/>
  <path d="m44.288 98.311c-8.504 0-12.143 4.1487-8.1062 9.2813 2.1412 2.7223 6.0463 5.1428 10.477 6.8438-4.4988 0.77376-8.0599 2.3493-11.188 4.25l-10.43-7.5c-0.04055-0.0268-0.06378-0.0675-0.10499-0.0937-0.02876-0.0183-0.05822-0.0134-0.08708-0.0312l-0.08041-0.0625h-0.03125c-1.3647-0.81815-5.2371-2.637-7.2272 0.625-1.269 2.1045-0.0093 5.2855 2.8295 7.0938 0.21605 0.13762 0.43805 0.16728 0.65871 0.28125l7.853 5.8125c-7.5916 11.063-4.0399 29.31 12.381 50.188 26.646 33.877 76.349 61.375 110.96 61.375 34.613 0 41.09-27.498 14.445-61.375-15.884-20.195-39.958-37.924-64.146-49.094l-1.4429-6.5625c0.0414-0.11397 0.21671-0.14363 0.21628-0.28125-6e-3 -1.8082-3.75-4.9893-8.3295-7.0938-7.1214-3.262-8.1327-1.4432-8.2103-0.625h-0.03125l0.01791 0.0625c-7e-4 0.0179-0.03799 0.0129-0.03793 0.0312 9e-5 0.0263 0.04084 0.0669 0.0425 0.0937l1.4374 7.9062c-6.556-2.1709-13.019-3.9687-19.147-4.875 1.9281-1.7054 2.1983-4.158-0.01247-6.9688-4.037-5.1325-14.202-9.2813-22.706-9.2813z" fill="url(#k)"/>
  <path d="m150.47 124.3c-26.507 1.1003-47.977 21.531-50.312 47.469h6.7812v4.8438h-7.0312c0.04132 17.299 8.5987 32.597 21.719 42.062 0.0897 0.0647 0.15989 0.15459 0.25 0.21875 1.5458 1.1005 3.273 1.9418 4.9375 2.875 1.4801 0.81163 2.9066 1.7017 4.4688 2.375 2.244 0.98821 4.5733 1.7937 6.9688 2.4688 0.96084 0.26478 1.9244 0.50623 2.9062 0.71875 2.3178 0.51331 4.7039 0.86136 7.125 1.0625 0.50613 0.0407 1.0212 0.0357 1.5312 0.0625v-8.0938h4.875v8.1562c4.141-0.15106 8.1506-0.78605 12-1.8125 2.4552-0.67074 4.8584-1.4382 7.1562-2.4375 1.4583-0.61949 2.7684-1.4787 4.1562-2.2188 16.272-8.8892 27.437-25.846 27.438-45.562 0-0.39859-0.0536-0.79104-0.0625-1.1875h-7.8125v-4.875h7.5c-2.922-25.164-23.866-44.848-49.719-46.125v9.6875h-4.875v-9.6875z" fill="#003600"/>
  <path d="m153.12 96.562c-8.3842 0-15.188 4.1191-15.188 9.2188-1e-5 2.7048 1.9824 5.1224 5.0312 6.8125-5.0354 0.7688-9.7854 2.3302-14.344 4.2188l-4.4688-7.4688c-0.0192-0.0266-0.011-0.0677-0.0312-0.0937-0.0142-0.0182-0.0479-0.0135-0.0625-0.0312l-0.0312-0.0625h-0.03c-0.71101-0.81291-3.1023-2.6161-7.5938 0.625-2.883 2.091-4.1154 5.2658-2.7188 7.0625 0.10628 0.13674 0.30833 0.16801 0.4375 0.28125l3.25 5.7812c-16.063 10.992-26.719 29.1-26.719 49.844 0 33.66 27.657 61 61.781 61 34.125 0 61.844-27.34 61.844-61-1e-5 -20.066-9.9714-37.683-25.156-48.781l3.6562-6.5c0.12916-0.11324 0.3312-0.14451 0.4375-0.28125 1.3966-1.7967 0.16424-4.9715-2.7188-7.0625-4.4915-3.2411-6.8828-1.4379-7.5938-0.625h-0.0312l-0.0312 0.0625c-0.0146 0.0178-0.0484 0.0131-0.0625 0.0312-0.0203 0.0261-0.0121 0.0671-0.0312 0.0937l-4.7188 7.875c-4.7802-2.157-9.7549-3.9433-15.094-4.8438 3.2234-1.6945 5.375-4.1447 5.375-6.9375-1e-5 -5.0997-6.8033-9.2188-15.188-9.2188zm-2.4375 27.531v9.6875h4.875v-9.6875c25.853 1.277 46.797 20.961 49.719 46.125h-7.5v4.875h7.8125c9e-3 0.39646 0.0625 0.78891 0.0625 1.1875 0 28.198-22.554 51.139-50.75 52.188v-8.3125h-4.875v8.25c-27.738-1.4922-49.84-24.157-49.906-52h7.0312v-4.86h-6.76c2.3356-25.938 23.805-46.368 50.312-47.469z" fill="#00bf00"/>
  <path d="m151.8 97.879c-8.3842 0-15.188 4.1191-15.188 9.2188-1e-5 2.7048 1.9824 5.1224 5.0312 6.8125-5.0354 0.7688-9.7854 2.3302-14.344 4.2188l-4.4688-7.4688c-0.0192-0.0266-0.011-0.0677-0.0312-0.0937-0.0142-0.0182-0.0479-0.0135-0.0625-0.0312l-0.0312-0.0625h-0.0312c-0.71101-0.81291-3.1023-2.6161-7.5938 0.625-2.883 2.091-4.1154 5.2658-2.7188 7.0625 0.10628 0.13674 0.30833 0.16801 0.4375 0.28125l3.25 5.7812c-16.064 10.992-26.719 29.1-26.719 49.844 0 33.66 27.657 61 61.781 61 34.125 0 61.844-27.34 61.844-61-1e-5 -20.066-9.9714-37.683-25.156-48.781l3.6562-6.5c0.12916-0.11324 0.3312-0.14451 0.4375-0.28125 1.3966-1.7967 0.16424-4.9715-2.7188-7.0625-4.4915-3.2411-6.8828-1.4379-7.5938-0.625h-0.0312l-0.0312 0.0625c-0.0146 0.0178-0.0484 0.013-0.0625 0.0312-0.0203 0.0261-0.0121 0.0671-0.0312 0.0937l-4.7188 7.875c-4.7802-2.157-9.7549-3.9433-15.094-4.8438 3.2234-1.6945 5.375-4.1447 5.375-6.9375-1e-5 -5.0997-6.8033-9.2188-15.188-9.2188zm-2.4375 27.531v9.6875h4.875v-9.6875c25.853 1.277 46.797 20.961 49.719 46.125h-7.5v4.875h7.8125c9e-3 0.39646 0.0625 0.78891 0.0625 1.1875 0 28.198-22.554 51.139-50.75 52.188v-8.3125h-4.875v8.25c-27.738-1.4922-49.84-24.157-49.906-52h7.0313v-4.8438h-6.7813c2.3356-25.938 23.806-46.368 50.313-47.469z" fill="url(#j)"/>
  <path d="m154.78 170c-3.0494 0-5.5313 2.4819-5.5312 5.5312 1e-5 3.0494 2.4819 5.5312 5.5312 5.5312 1.4684 0 2.7898-0.59398 3.7812-1.5312l-0.0312-0.0312 1.4375-2.75 0.0937 0.0312c0.0983-0.41206 0.25-0.80831 0.25-1.25 0.01-3.05-2.48-5.53-5.53-5.53zm5.2812 6.7812c-0.25361 1.0628-0.73079 2.0228-1.5 2.75l36.32 14.47-0.34375-0.34375-34.469-16.875zm-5.4062-4.3438c1.7686 0 3.2188 1.4829 3.2188 3.3125s-1.4501 3.3125-3.2188 3.3125c-1.7686 0-3.1875-1.4829-3.1875-3.3125s1.4188-3.3125 3.1875-3.3125z" fill="#f00" fill-opacity=".75"/>
  <path d="m172.92 146.72-21.844 23.938 0.25 0.1875c-1.4493 0.9961-2.4688 2.5785-2.4688 4.4688 0 3.0494 2.4819 5.5312 5.5312 5.5312 2.5185 0 4.5546-1.7255 5.2188-4.0312h0.0312l13.281-30.094z" fill="#00af00"/>
  <path d="m169.36 149.41-17.832 21.767 0.20408 0.17051c-1.1831 0.9058-2.0153 2.3448-2.0153 4.0636 0 2.773 2.026 5.0298 4.5154 5.0298 2.056 0 3.7181-1.5691 4.2602-3.6658h0.0255l10.842-27.366z" fill="url(#i)"/>
  <path d="m134.06 161.58 15.412 15.827c0.44599 1.0509 1.1437 1.9796 2.2021 2.6032 2.6273 1.548 6.0096 0.69651 7.5576-1.9308s0.6696-6.0254-1.9577-7.5734c-1.0371-0.61105-2.1761-0.73593-3.2904-0.63297l-19.923-8.293z" fill="#00af00"/>
  <path d="m135.52 163.5 14.361 14.006c0.4156 0.92993 1.0658 1.7518 2.052 2.3036 2.4482 1.3699 5.6 0.61636 7.0425-1.7086 1.4425-2.3249 0.62396-5.332-1.8242-6.7019-0.96639-0.54073-2.0278-0.65124-3.0662-0.56013l-18.565-7.3387z" fill="url(#h)"/>
  <path transform="matrix(1.0625 0 0 1.1389 -10.34 -16.109)" d="m165.44 106.46a12.087 6.7991 0 1 0 -24.175 0 12.087 6.7991 0 1 0 24.175 0z" fill="url(#c)"/>
  <path transform="matrix(.84946 0 0 .83966 14.536 27.294)" d="m153.36 210.34a12.087 11.71 0 1 0 -24.175 0 12.087 11.71 0 1 0 24.175 0z" fill="#009000"/>
  <path transform="matrix(.84946 0 0 .83966 49.716 27.127)" d="m153.36 210.34a12.087 11.71 0 1 0 -24.175 0 12.087 11.71 0 1 0 24.175 0z" fill="#009000"/>
  <path transform="matrix(.84946 0 0 .83966 14.253 27.01)" d="m153.36 210.34a12.087 11.71 0 1 0 -24.175 0 12.087 11.71 0 1 0 24.175 0z" fill="url(#g)"/>
  <path transform="matrix(.84946 0 0 .83966 49.433 26.843)" d="m153.36 210.34a12.087 11.71 0 1 0 -24.175 0 12.087 11.71 0 1 0 24.175 0z" fill="url(#f)"/>
  <path d="m134.66 203.25c-0.60054 0-1.0893 0.5288-1.0893 1.1785 0 0.64973 0.48878 1.1785 1.0893 1.1785 0.2892 0 0.54943-0.12656 0.74468-0.32626l-6e-3 -7e-3 0.2831-0.58593 0.0185 7e-3c0.0194-0.0878 0.0492-0.17223 0.0492-0.26633 0-0.64973-0.48878-1.1785-1.0893-1.1785zm1.0401 1.4449c-0.0499 0.22645-0.14392 0.431-0.29541 0.58593l7.1514 3.0828-0.0677-0.0732-6.7883-3.5955zm-1.0647-0.92551c0.34831 0 0.6339 0.31595 0.6339 0.70578s-0.28559 0.70579-0.6339 0.70579-0.62775-0.31595-0.62775-0.70579 0.27943-0.70578 0.62775-0.70578z" fill="#f00" fill-opacity=".75"/>
  <path d="m126.4 201.5 7.2123 4.0098 0.0333-0.0719c0.32982 0.29936 0.78326 0.46032 1.2579 0.3539 0.76577-0.17167 1.2526-0.9201 1.0849-1.668-0.13848-0.6177-0.68375-1.0199-1.2993-1.053l-2e-3 -8e-3 -8.2874-1.5632z" fill="#030"/>
  <path d="m132.57 211.92 2.9004-5.1818c0.22882-0.18243 0.412-0.42867 0.49795-0.75912 0.2134-0.82036-0.20697-1.7206-0.94617-2.0101-0.7392-0.28944-1.5145 0.14264-1.7279 0.96298-0.0842 0.32383-0.0433 0.64956 0.0518 0.95589l-0.77617 6.0321z" fill="#030"/>
  <path d="m170.53 203.65c-0.3756-0.46858-1.0939-0.51921-1.6009-0.11284-0.50697 0.40637-0.61384 1.1185-0.23823 1.5871 0.18088 0.22564 0.4424 0.34953 0.72033 0.37698l1e-3 -9e-3 0.63425-0.14559 6e-3 0.0186c0.0806-0.0398 0.16519-0.0693 0.23861-0.12816 0.50696-0.40637 0.61385-1.1185 0.23823-1.5871zm-0.47684 1.7152c-0.20792 0.10267-0.42631 0.15728-0.64194 0.13598l2.0675 7.5081 0.0148-0.0986-1.4403-7.5454zm0.0562-1.4096c0.21785 0.27178 0.14996 0.69223-0.15421 0.93605s-0.72933 0.2186-0.94719-0.0532c-0.21786-0.27178-0.1461-0.68741 0.15808-0.93125s0.72546-0.22339 0.94332 0.0484z" fill="#f00" fill-opacity=".75"/>
  <path d="m178.83 201.83-8.2214 0.70973 0.0126 0.0782c-0.44084-0.0637-0.90676 0.0565-1.2407 0.41018-0.53879 0.5706-0.52373 1.4633 0.0336 1.9895 0.46027 0.43461 1.1372 0.46308 1.666 0.14624l6e-3 5e-3 7.7443-3.3393z" fill="#030"/>
  <path d="m167.51 197.4 0.49375 5.9177c-0.0877 0.27921-0.10179 0.58578 0.0118 0.90779 0.28192 0.79941 1.1339 1.3106 1.9086 1.1371 0.77466-0.17349 1.1757-0.96529 0.89379-1.7647-0.11129-0.31556-0.32744-0.56266-0.5776-0.76341l-2.7303-5.4346z" fill="#030"/>
  <path d="m150.02 124.23c-26.507 1.1003-45.333 19.264-50.312 47.469 36.64-26.441 43.712 56.542 105.28 4.7188 0-0.39859-0.0536-0.79104-0.0625-1.1875h-7.8125v-4.875h7.5c-2.922-25.164-22.732-45.226-48.586-46.503l-1.1332 10.065h-4.875v-9.6875z" fill="url(#e)"/>
 </g>
</svg>