<svg id="_sprite-product-app" fill="none" viewBox="0 0 24 24"><path fill="#CEE0FA" d="M20.23 4H3.5a1 1 0 00-1 1v13.68a1 1 0 001 1h16.73a1 1 0 001-1V5a1 1 0 00-1-1z"></path><path fill="#fff" d="M20.75 4.17H3.13a.5.5 0 00-.5.5v2.5a.5.5 0 00.5.5h17.62a.5.5 0 00.5-.5v-2.5a.5.5 0 00-.5-.5z"></path><path fill="#003F99" d="M4.44 6.27a.39.39 0 100-.78.39.39 0 000 .78zm1.33 0a.39.39 0 100-.78.39.39 0 000 .78zm1.32 0a.39.39 0 100-.78.39.39 0 000 .78zM7 14.08a.16.16 0 01-.09-.14v-.66a.16.16 0 01.09-.14l3.31-1.41a.071.071 0 01.066.003.07.07 0 01.034.057v.65a.17.17 0 01-.1.14l-2.49 1v.08l2.49 1a.17.17 0 01.1.13v.65a.07.07 0 01-.03.064.07.07 0 01-.07.006L7 14.08zm3.75 2.29c-.06 0-.09 0-.07-.09L12.46 11a.15.15 0 01.14-.1h.64a.071.071 0 01.064.03.07.07 0 01.006.07l-1.78 5.32a.15.15 0 01-.13.09l-.65-.04zm2.91-.89c-.05 0-.09 0-.09-.07v-.65a.15.15 0 01.09-.13l2.5-1c.06 0 .06-.05 0-.08l-2.5-1a.16.16 0 01-.09-.14v-.65a.06.06 0 01.09-.06L17 13.14a.16.16 0 01.09.14v.66a.16.16 0 01-.09.14l-3.34 1.4z"></path><path fill="#003F99" d="M20.5 3.5h-17A1.5 1.5 0 002 5v14a1.5 1.5 0 001.5 1.5h17A1.5 1.5 0 0022 19V5a1.5 1.5 0 00-1.5-1.5zm-17 1h17a.5.5 0 01.5.5v2.31H3V5a.5.5 0 01.5-.5zm17 15h-17A.5.5 0 013 19V8.31h18V19a.5.5 0 01-.5.5z"></path></svg>